<svg width="500" height="400" viewBox="0 0 500 400" xmlns="http://www.w3.org/2000/svg">
  <rect x="10" y="10" width="480" height="380" rx="10" fill="#1a1a2e" stroke="#3a3a5c" stroke-width="2" />
  <rect x="30" y="30" width="440" height="60" rx="5" fill="#2a2a42" />
  <rect x="50" y="45" width="120" height="30" rx="5" fill="#3a3a5c" />
  <rect x="190" y="45" width="120" height="30" rx="5" fill="#3a3a5c" />
  <rect x="330" y="45" width="120" height="30" rx="5" fill="#3a3a5c" />
  
  <rect x="30" y="110" width="250" height="260" rx="5" fill="#2a2a42" />
  <rect x="300" y="110" width="170" height="120" rx="5" fill="#2a2a42" />
  <rect x="300" y="250" width="170" height="120" rx="5" fill="#2a2a42" />
  
  <rect x="50" y="130" width="210" height="30" rx="5" fill="#3a3a5c" />
  <rect x="50" y="180" width="210" height="30" rx="5" fill="#3a3a5c" />
  <rect x="50" y="230" width="210" height="30" rx="5" fill="#3a3a5c" />
  <rect x="50" y="280" width="210" height="30" rx="5" fill="#3a3a5c" />
  <rect x="50" y="330" width="210" height="30" rx="5" fill="#3a3a5c" />
  
  <circle cx="320" cy="170" r="40" fill="#5c45ff" opacity="0.7" />
  <circle cx="330" cy="160" r="35" fill="#7a65ff" opacity="0.7" />
  
  <path d="M 320 310 L 450 310 L 385 350 Z" fill="#5c45ff" opacity="0.7" />
  <path d="M 320 320 L 450 320 L 385 280 Z" fill="#7a65ff" opacity="0.7" />
</svg> 